Coordinates
version=1
nRows=20
nColumns=34
inDegrees=yes

Units are S.I. units (second, meters, Newtons, ...)
If the header above contains a line with 'inDegrees', this indicates whether rotational values are in degrees (yes) or radians (no).

endheader
time	pelvis_tilt	pelvis_list	pelvis_rotation	pelvis_tx	pelvis_ty	pelvis_tz	hip_flexion_r	hip_adduction_r	hip_rotation_r	knee_angle_r	ankle_angle_r	subtalar_angle_r	mtp_angle_r	hip_flexion_l	hip_adduction_l	hip_rotation_l	knee_angle_l	ankle_angle_l	subtalar_angle_l	mtp_angle_l	lumbar_extension	lumbar_bending	lumbar_rotation	arm_flex_r	arm_add_r	arm_rot_r	elbow_flex_r	pro_sup_r	arm_flex_l	arm_add_l	arm_rot_l	elbow_flex_l	pro_sup_l
      4.98333330	     -5.16726684	      1.94383055	     -5.49429781	      0.82563489	      1.04274416	     -0.01742344	      5.54127312	      4.88213281	    -20.76275197	      1.95319089	    -35.40649070	     -6.79026468	      0.00000000	      3.31001425	      3.09637771	    -11.53337973	      1.93933818	    -23.55770838	     -0.51029606	      0.00000000	      5.98205938	      2.87480199	     -8.11022666	      3.32868619	     -3.20148548	     25.80693057	      6.64986008	     81.53563048	     -9.58513543	    -10.41086356	     18.13203500	     15.75015788	     63.11532454
      5.00000000	     -5.04197508	      1.69930817	     -5.72294056	      0.82969726	      1.01090757	     -0.01737191	      5.69424652	      4.89583298	    -21.18686657	      2.40767155	    -33.82437716	     -7.94567614	      0.00000000	      3.61451589	      2.95122343	    -10.46793734	      2.73201268	    -22.71659175	     -0.16934914	      0.00000000	      5.83983489	      3.51605923	     -8.29207591	      3.43626674	     -3.38673082	     25.95385537	      6.97109532	     81.62358923	     -9.22861156	    -10.53777620	     18.04963416	     16.03905207	     63.05691832
      5.01666670	     -4.79454809	      1.39602802	     -6.31632147	      0.83360464	      0.97440944	     -0.02004794	      5.77060804	      4.74001026	    -21.31636427	      3.55300363	    -32.67218767	     -8.95377034	      0.00000000	      3.64920585	      2.74764515	     -9.33289216	      3.76094348	    -21.43904356	      0.13451264	      0.00000000	      5.86503640	      4.15476400	     -8.55589383	      3.06998871	     -3.78560222	     26.08730221	      7.15248028	     81.70805815	     -9.29500628	    -10.44975787	     17.99696862	     16.35756534	     62.99363374
      5.03333330	     -4.58532216	      1.17014925	     -6.60910270	      0.83003404	      0.94143741	     -0.01813695	      6.05738872	      4.58914449	    -19.92909870	      5.43118915	    -31.03525913	    -10.12233306	      0.00000000	      3.92119654	      2.40215805	     -8.28504809	      5.40820954	    -19.31949238	     -0.79055414	      0.00000000	      5.61308816	      4.68407405	     -8.89212599	      2.46482644	     -4.18945905	     26.18031386	      7.43906387	     81.77473623	     -9.19326342	    -10.46790794	     17.93815311	     16.75764984	     62.92687344
      5.05000000	     -3.90525163	      1.04710692	     -6.99022704	      0.83166464	      0.91201576	     -0.01790700	      6.34971257	      4.15188378	    -17.39693570	      8.56938834	    -28.76605548	    -12.05020735	      0.00000000	      4.02727603	      2.20664121	     -6.15392214	      8.15713858	    -15.63219530	     -2.24510764	      0.00000000	      4.63780403	      5.03621366	     -9.16091068	      1.89029442	     -4.61116003	     26.18169160	      7.59058416	     81.78931726	     -8.92238052	    -10.32200096	     17.94731620	     17.04123565	     62.89423620
      5.06666670	     -2.89945980	      0.82268034	     -7.70712371	      0.83181096	      0.86843660	     -0.01905082	      7.36313696	      3.95246252	    -11.87582300	     14.56375507	    -24.43591962	    -18.33904682	      0.00000000	      4.40308439	      2.04269501	     -3.25422954	     13.78547073	     -9.06027997	     -6.11719212	      0.00000000	      2.90161191	      5.48042365	     -8.78865672	      0.79646885	     -5.35980323	     25.77862203	      8.73872698	     81.60466341	     -8.27255753	    -10.07970194	     18.18539087	     17.28565431	     62.85272781
      5.08333330	     -0.96457555	      0.50654158	     -8.68447590	      0.83204476	      0.83776957	     -0.02043263	      8.12313724	      4.09670062	     -6.97813949	     22.17478655	    -15.73430951	    -24.34104408	      0.00000000	      4.54038005	      2.14911334	     -1.51474112	     21.34512977	     -1.40879308	     -9.87701299	      0.00000000	     -0.12431058	      6.06642312	     -8.50214533	      0.51858497	     -5.99088282	     25.34224702	      8.80878649	     81.37726843	     -7.34446832	     -9.61993802	     18.45321753	     17.08060370	     62.87501752
      5.10000000	      0.87314370	      0.28982207	     -9.83907020	      0.83174061	      0.80584566	     -0.01658141	      9.55416771	      4.75584819	     -3.38431810	     30.64102666	     -6.80463972	    -31.63486308	      0.00000000	      5.35950375	      2.71645748	     -0.72287252	     29.37124193	      8.45755822	    -13.43457475	      0.00000000	     -3.39511160	      6.29025414	     -7.49046112	      0.35845811	     -6.32079202	     24.59368403	      8.78927132	     80.92234955	     -6.10464891	     -9.19850500	     19.04975618	     16.43906104	     62.95636054
      5.11666670	      2.56010034	      0.23902706	    -10.64604291	      0.83206283	      0.78753286	     -0.01412273	     12.32274058	      5.33352948	     -1.41803508	     41.13820770	      3.31354653	    -35.00000000	      0.00000000	      6.87863527	      3.68080927	     -0.21076394	     37.68054700	     17.97764798	    -17.20780946	      0.00000000	     -7.09391140	      6.21702763	     -6.14973745	      1.37325310	     -6.04517578	     24.32743011	      7.40967309	     80.56194349	     -4.42153748	     -8.66959625	     19.79911717	     15.61063525	     63.07535331
      5.13333330	      3.86681427	      0.40468239	    -11.32715130	      0.83006743	      0.78516283	     -0.01623929	     15.84469060	      5.56284958	     -0.56847093	     50.75489060	     11.20002384	    -35.00000000	      0.00000000	      9.23101837	      5.17022332	      0.83989542	     45.37880527	     23.80856486	    -21.04540390	      0.00000000	    -10.62177444	      5.82886685	     -4.99899431	      2.55203082	     -5.58606632	     24.56077331	      5.77325766	     80.35558036	     -2.98334404	     -8.18496852	     20.86288054	     15.29986402	     63.32034816
      5.15000000	      4.68609437	      0.60678284	    -11.79593349	      0.82023745	      0.76965602	     -0.01673858	     20.83361365	      5.65688839	     -0.70265596	     60.59910156	     15.36624121	    -35.00000000	      0.00000000	     12.84076970	      6.64978087	      2.11710528	     53.42293265	     27.67170358	    -24.24906365	      0.00000000	    -13.73288698	      5.47097025	     -4.72755206	      3.16425858	     -5.56661303	     24.91845579	      5.73313036	     80.07624902	     -1.90753956	     -7.91886128	     22.53045098	     15.84948399	     63.78852514
      5.16666670	      4.95772986	      0.97166270	    -12.28455852	      0.80828655	      0.76297250	     -0.01461428	     25.91592774	      5.52404186	     -1.45820570	     68.31676487	     16.17246096	    -35.00000000	      0.00000000	     17.19559954	      7.91870587	      3.10432440	     60.34371361	     28.16847208	    -26.82833495	      0.00000000	    -16.43006545	      5.05476687	     -4.67050712	      3.37620053	     -5.83185958	     25.06235164	      7.34259014	     79.72153246	     -0.83245011	     -7.98077779	     24.06707580	     16.93965520	     64.28661732
      5.18333330	      4.91067981	      1.21561798	    -12.61045818	      0.79457668	      0.75486751	     -0.01603926	     30.31575711	      4.93824036	     -2.41961280	     73.42965336	     14.27870271	    -35.00000000	      0.00000000	     21.12854180	      8.72544685	      3.70228739	     65.18059953	     26.56637891	    -30.04893441	      0.00000000	    -19.08358385	      4.87084582	     -4.11524690	      3.80551331	     -6.21931234	     24.85424986	     10.14042989	     77.78981563	      1.20571135	     -8.63803922	     29.73075901	     17.60014912	     66.24231167
      5.20000000	      4.25527686	      1.44477149	    -12.78375902	      0.77855547	      0.75111564	     -0.01906718	     34.34555856	      4.08733023	     -3.46233227	     76.40215135	     10.64676783	    -35.00000000	      0.00000000	     25.27496248	      8.88107711	      3.68817112	     68.86396377	     25.68744411	    -30.89813086	      0.00000000	    -21.18898739	      4.88640151	     -3.55410171	      5.29894877	     -6.26675005	     24.79290579	     11.07963213	     77.40670655	      3.03833624	     -8.99799285	     30.28011659	     18.62101540	     66.47360423
      5.21666670	      3.90509512	      1.47818041	    -12.79156907	      0.78159770	      0.75278992	     -0.01846221	     35.63809662	      2.77853744	     -4.90344731	     76.91315986	      6.88102036	    -35.00000000	      0.00000000	     26.85879209	      8.52907171	      3.75152690	     69.74777231	     24.13724159	    -30.94245661	      0.00000000	    -22.89461828	      4.93751455	     -2.86448211	      6.74811758	     -6.10525415	     24.71851499	     11.35827055	     77.14136150	      4.62303746	     -9.10988140	     30.57424023	     19.08117030	     66.64879877
      5.23333330	      3.73339949	      1.24789803	    -12.52961173	      0.78147173	      0.75315675	     -0.02004902	     35.33053585	      1.72576497	     -6.21041686	     75.94739889	      4.14469351	    -35.00000000	      0.00000000	     27.31221507	      7.96037443	      3.77376474	     69.61423605	     22.28198409	    -31.00506444	      0.00000000	    -24.25182319	      5.32858997	     -2.44095909	      7.80561135	     -6.07038329	     24.45802073	     11.55898665	     76.79846435	      5.79695535	     -9.04648695	     30.88257167	     19.33298392	     66.86725649
      5.25000000	      3.45059142	      1.25019737	    -12.44437822	      0.78300943	      0.75039369	     -0.02023026	     35.08530546	      0.92816649	     -6.93185976	     75.26964464	      3.35972611	    -34.68615369	      0.00000000	     27.51250234	      7.67262249	      3.47520026	     69.36509880	     21.13939578	    -30.30217494	      0.00000000	    -24.60377184	      5.39141476	     -2.17641915	      9.02401387	     -6.04629313	     24.31362905	     11.99793791	     76.70590265	      6.45316808	     -8.98615723	     30.88362305	     19.40643480	     66.90486221
      5.26666670	      4.05852693	      0.84047047	    -12.33228565	      0.77995839	      0.75105184	     -0.02125132	     33.79034692	      0.61697044	     -7.79562255	     74.43730631	      2.36233022	    -35.00000000	      0.00000000	     26.48446302	      7.44771744	      3.59584237	     68.85392405	     20.13404573	    -30.60321192	      0.00000000	    -26.00998032	      5.68173854	     -1.51062028	     10.19189156	     -6.24164518	     23.17868772	     13.28826832	     76.06034424	      7.22018489	     -8.68642488	     30.74642204	     18.98380759	     67.09179933
      5.28333330	      4.05044542	      0.99176953	    -12.21021547	      0.77544725	      0.74948546	     -0.02412106	     33.91479081	      0.27199183	     -7.84059083	     74.11311634	      2.72463983	    -35.00000000	      0.00000000	     27.22099763	      7.71435193	      3.42655184	     69.46883956	     19.78591542	    -30.42176248	      0.00000000	    -26.45185777	      5.58342264	     -1.06289052	     11.33646653	     -6.34123536	     22.98531543	     13.65202026	     75.98139738	      7.56909223	     -8.59033617	     30.69981838	     19.04039881	     67.11023090
      5.30000000	      3.93238162	      1.24238163	    -11.62206875	      0.77403701	      0.75159694	     -0.02257385	     33.78887409	      0.29108097	     -7.58665042	     73.28321126	      3.96294593	    -35.00000000	      0.00000000	     27.55142213	      8.29579035	      3.66075444	     69.17008629	     18.41038106	    -31.63246507	      0.00000000	    -26.37149241	      5.30111841	     -0.21582262	     11.17275052	     -6.55372249	     20.06349058	     15.44715767	     74.68601928	      8.09302065	     -8.21288009	     30.13198544	     18.65264762	     67.54327073
